<mxfile host="app.diagrams.net" modified="2024-01-19T05:46:27.115Z" agent="Mozilla/5.0 (Windows NT 10.0; Win64; x64) AppleWebKit/537.36 (KHTML, like Gecko) Chrome/120.0.0.0 Safari/537.36" etag="6H8Nw2V-WIWbSB3MnxIv" version="22.1.21" type="device">
  <diagram name="Sayfa -1" id="6UtiO6GzL7q6LjKAUqlm">
    <mxGraphModel dx="1674" dy="772" grid="1" gridSize="10" guides="1" tooltips="1" connect="1" arrows="1" fold="1" page="1" pageScale="1" pageWidth="827" pageHeight="1169" math="0" shadow="0">
      <root>
        <mxCell id="0" />
        <mxCell id="1" parent="0" />
        <mxCell id="WqfIU3S9uiLg2I7z1mc4-2" style="edgeStyle=orthogonalEdgeStyle;rounded=0;orthogonalLoop=1;jettySize=auto;html=1;" parent="1" source="WqfIU3S9uiLg2I7z1mc4-1" edge="1">
          <mxGeometry relative="1" as="geometry">
            <mxPoint x="320" y="230" as="targetPoint" />
          </mxGeometry>
        </mxCell>
        <mxCell id="WqfIU3S9uiLg2I7z1mc4-1" value="BAŞLA" style="ellipse;whiteSpace=wrap;html=1;" parent="1" vertex="1">
          <mxGeometry x="240" y="70" width="160" height="90" as="geometry" />
        </mxCell>
        <mxCell id="WqfIU3S9uiLg2I7z1mc4-4" style="edgeStyle=orthogonalEdgeStyle;rounded=0;orthogonalLoop=1;jettySize=auto;html=1;" parent="1" source="WqfIU3S9uiLg2I7z1mc4-3" edge="1">
          <mxGeometry relative="1" as="geometry">
            <mxPoint x="315" y="390" as="targetPoint" />
          </mxGeometry>
        </mxCell>
        <mxCell id="WqfIU3S9uiLg2I7z1mc4-3" value="SAYI&lt;br&gt;FAKTORİYEL" style="shape=parallelogram;perimeter=parallelogramPerimeter;whiteSpace=wrap;html=1;fixedSize=1;" parent="1" vertex="1">
          <mxGeometry x="240" y="230" width="150" height="80" as="geometry" />
        </mxCell>
        <mxCell id="WqfIU3S9uiLg2I7z1mc4-6" style="edgeStyle=orthogonalEdgeStyle;rounded=0;orthogonalLoop=1;jettySize=auto;html=1;" parent="1" source="WqfIU3S9uiLg2I7z1mc4-5" edge="1">
          <mxGeometry relative="1" as="geometry">
            <mxPoint x="320" y="520" as="targetPoint" />
          </mxGeometry>
        </mxCell>
        <mxCell id="WqfIU3S9uiLg2I7z1mc4-5" value="SAYI=44" style="rounded=0;whiteSpace=wrap;html=1;" parent="1" vertex="1">
          <mxGeometry x="247.5" y="390" width="145" height="70" as="geometry" />
        </mxCell>
        <mxCell id="WqfIU3S9uiLg2I7z1mc4-8" style="edgeStyle=orthogonalEdgeStyle;rounded=0;orthogonalLoop=1;jettySize=auto;html=1;" parent="1" source="WqfIU3S9uiLg2I7z1mc4-7" edge="1">
          <mxGeometry relative="1" as="geometry">
            <mxPoint x="320" y="680" as="targetPoint" />
          </mxGeometry>
        </mxCell>
        <mxCell id="WqfIU3S9uiLg2I7z1mc4-7" value="FAKTORİYEL=44" style="rounded=0;whiteSpace=wrap;html=1;" parent="1" vertex="1">
          <mxGeometry x="250" y="530" width="140" height="65" as="geometry" />
        </mxCell>
        <mxCell id="WqfIU3S9uiLg2I7z1mc4-10" style="edgeStyle=orthogonalEdgeStyle;rounded=0;orthogonalLoop=1;jettySize=auto;html=1;" parent="1" source="WqfIU3S9uiLg2I7z1mc4-9" edge="1">
          <mxGeometry relative="1" as="geometry">
            <mxPoint x="320" y="790" as="targetPoint" />
          </mxGeometry>
        </mxCell>
        <mxCell id="WqfIU3S9uiLg2I7z1mc4-9" value="FAKTORİYEL=FAKTORİYEL*SAYI" style="rounded=0;whiteSpace=wrap;html=1;" parent="1" vertex="1">
          <mxGeometry x="225" y="680" width="190" height="60" as="geometry" />
        </mxCell>
        <mxCell id="WqfIU3S9uiLg2I7z1mc4-12" style="edgeStyle=orthogonalEdgeStyle;rounded=0;orthogonalLoop=1;jettySize=auto;html=1;" parent="1" source="WqfIU3S9uiLg2I7z1mc4-11" edge="1">
          <mxGeometry relative="1" as="geometry">
            <mxPoint x="460" y="850" as="targetPoint" />
          </mxGeometry>
        </mxCell>
        <mxCell id="WqfIU3S9uiLg2I7z1mc4-13" value="EVET" style="edgeLabel;html=1;align=center;verticalAlign=middle;resizable=0;points=[];" parent="WqfIU3S9uiLg2I7z1mc4-12" vertex="1" connectable="0">
          <mxGeometry x="-0.1788" relative="1" as="geometry">
            <mxPoint as="offset" />
          </mxGeometry>
        </mxCell>
        <mxCell id="WqfIU3S9uiLg2I7z1mc4-14" style="edgeStyle=orthogonalEdgeStyle;rounded=0;orthogonalLoop=1;jettySize=auto;html=1;" parent="1" source="WqfIU3S9uiLg2I7z1mc4-11" edge="1">
          <mxGeometry relative="1" as="geometry">
            <mxPoint x="317.5" y="990" as="targetPoint" />
          </mxGeometry>
        </mxCell>
        <mxCell id="WqfIU3S9uiLg2I7z1mc4-15" value="HAYIR" style="edgeLabel;html=1;align=center;verticalAlign=middle;resizable=0;points=[];" parent="WqfIU3S9uiLg2I7z1mc4-14" vertex="1" connectable="0">
          <mxGeometry x="-0.205" y="-1" relative="1" as="geometry">
            <mxPoint as="offset" />
          </mxGeometry>
        </mxCell>
        <mxCell id="WqfIU3S9uiLg2I7z1mc4-11" value="SAYI&amp;gt;1" style="rhombus;whiteSpace=wrap;html=1;" parent="1" vertex="1">
          <mxGeometry x="250" y="790" width="135" height="120" as="geometry" />
        </mxCell>
        <mxCell id="WqfIU3S9uiLg2I7z1mc4-16" value="SAYI= SAYI -1" style="rounded=0;whiteSpace=wrap;html=1;" parent="1" vertex="1">
          <mxGeometry x="460" y="810" width="120" height="60" as="geometry" />
        </mxCell>
        <mxCell id="WqfIU3S9uiLg2I7z1mc4-22" value="" style="endArrow=classic;html=1;rounded=0;" parent="1" edge="1">
          <mxGeometry width="50" height="50" relative="1" as="geometry">
            <mxPoint x="520" y="640" as="sourcePoint" />
            <mxPoint x="320" y="640" as="targetPoint" />
          </mxGeometry>
        </mxCell>
        <mxCell id="WqfIU3S9uiLg2I7z1mc4-23" value="" style="endArrow=none;html=1;rounded=0;exitX=0.5;exitY=0;exitDx=0;exitDy=0;" parent="1" source="WqfIU3S9uiLg2I7z1mc4-16" edge="1">
          <mxGeometry width="50" height="50" relative="1" as="geometry">
            <mxPoint x="470" y="730" as="sourcePoint" />
            <mxPoint x="520" y="640" as="targetPoint" />
          </mxGeometry>
        </mxCell>
        <mxCell id="WqfIU3S9uiLg2I7z1mc4-25" style="edgeStyle=orthogonalEdgeStyle;rounded=0;orthogonalLoop=1;jettySize=auto;html=1;" parent="1" source="WqfIU3S9uiLg2I7z1mc4-24" edge="1">
          <mxGeometry relative="1" as="geometry">
            <mxPoint x="315" y="1170" as="targetPoint" />
          </mxGeometry>
        </mxCell>
        <mxCell id="WqfIU3S9uiLg2I7z1mc4-24" value="FAKTORİYEL" style="shape=document;whiteSpace=wrap;html=1;boundedLbl=1;" parent="1" vertex="1">
          <mxGeometry x="255" y="1010" width="120" height="80" as="geometry" />
        </mxCell>
        <mxCell id="WqfIU3S9uiLg2I7z1mc4-26" value="BİTTİ" style="ellipse;whiteSpace=wrap;html=1;" parent="1" vertex="1">
          <mxGeometry x="260" y="1169" width="120" height="80" as="geometry" />
        </mxCell>
      </root>
    </mxGraphModel>
  </diagram>
</mxfile>
